<svg xmlns="http://www.w3.org/2000/svg" viewBox="0 0 1451.93 4564.27"><defs><style>.e42d85de-04f3-4bff-9b2b-388da98a1575{fill:none;stroke:#fff;stroke-miterlimit:10;stroke-width:0.75px;}</style></defs><g id="f8acd745-ec2e-40ec-b45b-70fe5708f8a9" data-name="Layer 2"><g id="b31f5067-02af-4b9f-b835-b4b6621bda32" data-name="Cross Squares"><g id="b5f9ee4f-1a8d-428b-b32e-2fdb115f444e" data-name="Cross Square 1"><rect class="e42d85de-04f3-4bff-9b2b-388da98a1575" x="99.67" y="0.38" width="54.82" height="54.82"/><line class="e42d85de-04f3-4bff-9b2b-388da98a1575" x1="99.67" y1="0.38" x2="154.49" y2="55.2"/><line class="e42d85de-04f3-4bff-9b2b-388da98a1575" x1="154.49" y1="0.38" x2="99.67" y2="55.2"/></g><g id="f631e60e-4b2c-450b-95f2-3f8cfe37e15d" data-name="Cross Square 1"><rect class="e42d85de-04f3-4bff-9b2b-388da98a1575" x="1396.74" y="216.55" width="54.82" height="54.82"/><line class="e42d85de-04f3-4bff-9b2b-388da98a1575" x1="1396.74" y1="216.55" x2="1451.56" y2="271.37"/><line class="e42d85de-04f3-4bff-9b2b-388da98a1575" x1="1451.56" y1="216.55" x2="1396.74" y2="271.37"/></g><g id="eb69b2ff-d2e8-4e0e-9c80-108adf8f2e95" data-name="Cross Square 1"><rect class="e42d85de-04f3-4bff-9b2b-388da98a1575" x="686.4" y="464.8" width="54.82" height="54.82"/><line class="e42d85de-04f3-4bff-9b2b-388da98a1575" x1="686.4" y1="464.8" x2="741.22" y2="519.62"/><line class="e42d85de-04f3-4bff-9b2b-388da98a1575" x1="741.22" y1="464.8" x2="686.4" y2="519.62"/></g><g id="a1fd08d1-b856-40b8-bf1d-eda53202c6e2" data-name="Cross Square 1"><rect class="e42d85de-04f3-4bff-9b2b-388da98a1575" x="263.1" y="1149.53" width="54.82" height="54.82"/><line class="e42d85de-04f3-4bff-9b2b-388da98a1575" x1="263.1" y1="1149.53" x2="317.92" y2="1204.35"/><line class="e42d85de-04f3-4bff-9b2b-388da98a1575" x1="317.92" y1="1149.53" x2="263.1" y2="1204.35"/></g><g id="ba8c538a-1a8f-46db-bc69-433a0599853a" data-name="Cross Square 1"><rect class="e42d85de-04f3-4bff-9b2b-388da98a1575" x="1179.53" y="1335.71" width="54.82" height="54.82"/><line class="e42d85de-04f3-4bff-9b2b-388da98a1575" x1="1179.53" y1="1335.71" x2="1234.35" y2="1390.53"/><line class="e42d85de-04f3-4bff-9b2b-388da98a1575" x1="1234.35" y1="1335.71" x2="1179.53" y2="1390.53"/></g><g id="a89380b5-d705-41b0-a8ba-4c470e12042a" data-name="Cross Square 1"><rect class="e42d85de-04f3-4bff-9b2b-388da98a1575" x="0.38" y="1910.81" width="54.82" height="54.82"/><line class="e42d85de-04f3-4bff-9b2b-388da98a1575" x1="0.38" y1="1910.81" x2="55.2" y2="1965.63"/><line class="e42d85de-04f3-4bff-9b2b-388da98a1575" x1="55.2" y1="1910.81" x2="0.38" y2="1965.63"/></g><g id="a1f15084-c1c1-496c-b985-4df345925886" data-name="Cross Square 1"><rect class="e42d85de-04f3-4bff-9b2b-388da98a1575" x="914.73" y="2357.64" width="54.82" height="54.82"/><line class="e42d85de-04f3-4bff-9b2b-388da98a1575" x1="914.73" y1="2357.64" x2="969.55" y2="2412.46"/><line class="e42d85de-04f3-4bff-9b2b-388da98a1575" x1="969.55" y1="2357.64" x2="914.73" y2="2412.46"/></g><g id="f0f8396c-eb49-43c9-a7ca-da050faff190" data-name="Cross Square 1"><rect class="e42d85de-04f3-4bff-9b2b-388da98a1575" x="360.33" y="2779.66" width="54.82" height="54.82"/><line class="e42d85de-04f3-4bff-9b2b-388da98a1575" x1="360.33" y1="2779.66" x2="415.15" y2="2834.48"/><line class="e42d85de-04f3-4bff-9b2b-388da98a1575" x1="415.15" y1="2779.66" x2="360.33" y2="2834.48"/></g><g id="a51e9a9e-8133-4196-b086-47e8229c4819" data-name="Cross Square 1"><rect class="e42d85de-04f3-4bff-9b2b-388da98a1575" x="1282.96" y="3379.57" width="54.82" height="54.82"/><line class="e42d85de-04f3-4bff-9b2b-388da98a1575" x1="1282.96" y1="3379.57" x2="1337.78" y2="3434.4"/><line class="e42d85de-04f3-4bff-9b2b-388da98a1575" x1="1337.78" y1="3379.57" x2="1282.96" y2="3434.4"/></g><g id="f1255ec9-d720-48a9-bfad-5827f0d02340" data-name="Cross Square 1"><rect class="e42d85de-04f3-4bff-9b2b-388da98a1575" x="662.35" y="3540.93" width="54.82" height="54.82"/><line class="e42d85de-04f3-4bff-9b2b-388da98a1575" x1="662.35" y1="3540.93" x2="717.17" y2="3595.75"/><line class="e42d85de-04f3-4bff-9b2b-388da98a1575" x1="717.17" y1="3540.93" x2="662.35" y2="3595.75"/></g><g id="bf0096c1-d7ba-4b98-ba62-7ad7aac4dc2e" data-name="Cross Square 1"><rect class="e42d85de-04f3-4bff-9b2b-388da98a1575" x="811.3" y="3946.4" width="54.82" height="54.82"/><line class="e42d85de-04f3-4bff-9b2b-388da98a1575" x1="811.3" y1="3946.4" x2="866.12" y2="4001.22"/><line class="e42d85de-04f3-4bff-9b2b-388da98a1575" x1="866.12" y1="3946.4" x2="811.3" y2="4001.22"/></g><g id="a17ecae5-52e1-4412-afe9-0251ec7670b2" data-name="Cross Square 1"><rect class="e42d85de-04f3-4bff-9b2b-388da98a1575" x="55.2" y="4509.08" width="54.82" height="54.82"/><line class="e42d85de-04f3-4bff-9b2b-388da98a1575" x1="55.2" y1="4509.08" x2="110.02" y2="4563.9"/><line class="e42d85de-04f3-4bff-9b2b-388da98a1575" x1="110.02" y1="4509.08" x2="55.2" y2="4563.9"/></g></g></g></svg>