<svg xmlns="http://www.w3.org/2000/svg" width="100%" height="100%"><defs><style>.b5bdf839-1744-44b1-87dd-3fae2d6220ed{fill:#231f20;}.b0285324-1ebe-487a-b5d1-3c58d0d1fb2b,.b5bdf839-1744-44b1-87dd-3fae2d6220ed{stroke:#fff;stroke-miterlimit:10;stroke-width:0.75px;}.b0285324-1ebe-487a-b5d1-3c58d0d1fb2b{fill:none;}</style></defs><g id="e4f8ce5e-da2e-43ab-822b-fe83fd49c851" data-name="Layer 2"><g id="a5f4f686-572c-4cac-9346-f51e146a3df8" data-name="Cross Squares"><g id="e6c10924-4d19-4ade-9f57-fb9a12eeaf7b" data-name="Cross Square 1"><rect class="b5bdf839-1744-44b1-87dd-3fae2d6220ed" x="43.04" y="0.38" width="23.56" height="23.56"/><line class="b0285324-1ebe-487a-b5d1-3c58d0d1fb2b" x1="43.04" y1="0.38" x2="66.6" y2="23.93"/><line class="b0285324-1ebe-487a-b5d1-3c58d0d1fb2b" x1="66.6" y1="0.38" x2="43.04" y2="23.93"/></g><g id="a4e83da4-1741-49fa-805b-27eb26a482d2" data-name="Cross Square 1"><rect class="b5bdf839-1744-44b1-87dd-3fae2d6220ed" x="600.37" y="93.26" width="23.56" height="23.56"/><line class="b0285324-1ebe-487a-b5d1-3c58d0d1fb2b" x1="600.37" y1="93.26" x2="623.93" y2="116.82"/><line class="b0285324-1ebe-487a-b5d1-3c58d0d1fb2b" x1="623.93" y1="93.26" x2="600.37" y2="116.82"/></g><g id="fe594647-6fd4-4998-84f7-cc0bff22884b" data-name="Cross Square 1"><rect class="b5bdf839-1744-44b1-87dd-3fae2d6220ed" x="295.15" y="199.93" width="23.56" height="23.56"/><line class="b0285324-1ebe-487a-b5d1-3c58d0d1fb2b" x1="295.15" y1="199.93" x2="318.71" y2="223.49"/><line class="b0285324-1ebe-487a-b5d1-3c58d0d1fb2b" x1="318.71" y1="199.93" x2="295.15" y2="223.49"/></g><g id="a8b7e474-d794-463c-bdae-c7ea4c757c7a" data-name="Cross Square 1"><rect class="b5bdf839-1744-44b1-87dd-3fae2d6220ed" x="113.26" y="494.15" width="23.56" height="23.56"/><line class="b0285324-1ebe-487a-b5d1-3c58d0d1fb2b" x1="113.26" y1="494.15" x2="136.82" y2="517.71"/><line class="b0285324-1ebe-487a-b5d1-3c58d0d1fb2b" x1="136.82" y1="494.15" x2="113.26" y2="517.71"/></g><g id="ecc6918b-553f-4efb-ba56-979436a888c4" data-name="Cross Square 1"><rect class="b5bdf839-1744-44b1-87dd-3fae2d6220ed" x="507.04" y="574.15" width="23.56" height="23.56"/><line class="b0285324-1ebe-487a-b5d1-3c58d0d1fb2b" x1="507.04" y1="574.15" x2="530.6" y2="597.71"/><line class="b0285324-1ebe-487a-b5d1-3c58d0d1fb2b" x1="530.6" y1="574.15" x2="507.04" y2="597.71"/></g><g id="a3f92962-fc43-4e38-bc54-a88249e32259" data-name="Cross Square 1"><rect class="b5bdf839-1744-44b1-87dd-3fae2d6220ed" x="0.38" y="821.26" width="23.56" height="23.56"/><line class="b0285324-1ebe-487a-b5d1-3c58d0d1fb2b" x1="0.38" y1="821.26" x2="23.93" y2="844.82"/><line class="b0285324-1ebe-487a-b5d1-3c58d0d1fb2b" x1="23.93" y1="821.26" x2="0.38" y2="844.82"/></g><g id="b5cf1bcd-0ff0-401f-801d-66ed04e44e2f" data-name="Cross Square 1"><rect class="b5bdf839-1744-44b1-87dd-3fae2d6220ed" x="393.26" y="1013.26" width="23.56" height="23.56"/><line class="b0285324-1ebe-487a-b5d1-3c58d0d1fb2b" x1="393.26" y1="1013.26" x2="416.82" y2="1036.82"/><line class="b0285324-1ebe-487a-b5d1-3c58d0d1fb2b" x1="416.82" y1="1013.26" x2="393.26" y2="1036.82"/></g><g id="a7b3e9d0-07d7-48c2-a042-968f5d7b15eb" data-name="Cross Square 1"><rect class="b5bdf839-1744-44b1-87dd-3fae2d6220ed" x="155.04" y="1194.6" width="23.56" height="23.56"/><line class="b0285324-1ebe-487a-b5d1-3c58d0d1fb2b" x1="155.04" y1="1194.6" x2="178.6" y2="1218.15"/><line class="b0285324-1ebe-487a-b5d1-3c58d0d1fb2b" x1="178.6" y1="1194.6" x2="155.04" y2="1218.15"/></g><g id="ac99fccd-2e02-414d-ba5b-855e199f15ed" data-name="Cross Square 1"><rect class="b5bdf839-1744-44b1-87dd-3fae2d6220ed" x="551.49" y="1452.38" width="23.56" height="23.56"/><line class="b0285324-1ebe-487a-b5d1-3c58d0d1fb2b" x1="551.49" y1="1452.38" x2="575.04" y2="1475.93"/><line class="b0285324-1ebe-487a-b5d1-3c58d0d1fb2b" x1="575.04" y1="1452.38" x2="551.49" y2="1475.93"/></g><g id="eab93c38-933d-4100-b8d3-062451d282a0" data-name="Cross Square 1"><rect class="b5bdf839-1744-44b1-87dd-3fae2d6220ed" x="284.82" y="1521.71" width="23.56" height="23.56"/><line class="b0285324-1ebe-487a-b5d1-3c58d0d1fb2b" x1="284.82" y1="1521.71" x2="308.38" y2="1545.26"/><line class="b0285324-1ebe-487a-b5d1-3c58d0d1fb2b" x1="308.38" y1="1521.71" x2="284.82" y2="1545.26"/></g><g id="ab856ac0-b253-4a65-aa45-92c5d18b150f" data-name="Cross Square 1"><rect class="b5bdf839-1744-44b1-87dd-3fae2d6220ed" x="348.82" y="1695.93" width="23.56" height="23.56"/><line class="b0285324-1ebe-487a-b5d1-3c58d0d1fb2b" x1="348.82" y1="1695.93" x2="372.38" y2="1719.49"/><line class="b0285324-1ebe-487a-b5d1-3c58d0d1fb2b" x1="372.38" y1="1695.93" x2="348.82" y2="1719.49"/></g><g id="ee67bf63-cca8-467d-a69c-65398a104fe9" data-name="Cross Square 1"><rect class="b5bdf839-1744-44b1-87dd-3fae2d6220ed" x="23.93" y="1937.71" width="23.56" height="23.56"/><line class="b0285324-1ebe-487a-b5d1-3c58d0d1fb2b" x1="23.93" y1="1937.71" x2="47.49" y2="1961.26"/><line class="b0285324-1ebe-487a-b5d1-3c58d0d1fb2b" x1="47.49" y1="1937.71" x2="23.93" y2="1961.26"/></g></g></g></svg>