<svg xmlns="http://www.w3.org/2000/svg" viewBox="0 0 1765.35 5065.77"><defs><style>.e84ef4ef-91a3-4002-b69e-823b1e007090{fill:none;stroke:#fff;stroke-miterlimit:10;stroke-width:0.5px;}</style></defs><g id="bca5a012-5370-4d36-94dc-c9ce936f2e50" data-name="Layer 2"><g id="b197ab8e-9673-4e87-bc0e-256075dee76d" data-name="Rectangles"><rect class="e84ef4ef-91a3-4002-b69e-823b1e007090" x="219.79" y="280.77" width="300.35" height="11.89"/><rect class="e84ef4ef-91a3-4002-b69e-823b1e007090" x="92.18" y="1067.13" width="300.35" height="11.89"/><rect class="e84ef4ef-91a3-4002-b69e-823b1e007090" x="1589.78" y="1717.86" width="175.32" height="11.89"/><rect class="e84ef4ef-91a3-4002-b69e-823b1e007090" x="1340.76" y="2342.74" width="87.66" height="11.89"/><rect class="e84ef4ef-91a3-4002-b69e-823b1e007090" x="354.51" y="2388.25" width="87.66" height="11.89" transform="translate(-1995.85 2792.54) rotate(-90)"/><rect class="e84ef4ef-91a3-4002-b69e-823b1e007090" x="378.95" y="2388.25" width="87.66" height="11.89" transform="translate(-1971.42 2816.97) rotate(-90)"/><rect class="e84ef4ef-91a3-4002-b69e-823b1e007090" x="378.95" y="2291.41" width="87.66" height="11.89" transform="translate(-1874.58 2720.13) rotate(-90)"/><rect class="e84ef4ef-91a3-4002-b69e-823b1e007090" x="1589.78" y="1738.81" width="175.32" height="11.89"/><rect class="e84ef4ef-91a3-4002-b69e-823b1e007090" x="1449.24" y="628.57" width="300.35" height="11.89"/><rect class="e84ef4ef-91a3-4002-b69e-823b1e007090" x="1260.12" y="25.51" width="146.1" height="11.89"/><rect class="e84ef4ef-91a3-4002-b69e-823b1e007090" x="1099.46" y="25.51" width="146.1" height="11.89"/><rect class="e84ef4ef-91a3-4002-b69e-823b1e007090" x="1260.12" y="0.25" width="146.1" height="11.89"/><rect class="e84ef4ef-91a3-4002-b69e-823b1e007090" x="1099.46" y="0.25" width="146.1" height="11.89"/><rect class="e84ef4ef-91a3-4002-b69e-823b1e007090" x="1229.7" y="2908.26" width="300.35" height="11.89" transform="translate(2759.74 5828.42) rotate(180)"/><rect class="e84ef4ef-91a3-4002-b69e-823b1e007090" x="1357.31" y="3694.62" width="300.35" height="11.89" transform="translate(3014.96 7401.14) rotate(180)"/><rect class="e84ef4ef-91a3-4002-b69e-823b1e007090" x="1006.28" y="4372.38" width="175.32" height="11.89" transform="translate(2187.88 8756.65) rotate(180)"/><rect class="e84ef4ef-91a3-4002-b69e-823b1e007090" x="321.41" y="4970.23" width="87.66" height="11.89" transform="translate(730.49 9952.35) rotate(180)"/><rect class="e84ef4ef-91a3-4002-b69e-823b1e007090" x="1307.66" y="5015.74" width="87.66" height="11.89" transform="translate(-3670.2 6373.18) rotate(-90)"/><rect class="e84ef4ef-91a3-4002-b69e-823b1e007090" x="1283.22" y="5015.74" width="87.66" height="11.89" transform="translate(-3694.63 6348.74) rotate(-90)"/><rect class="e84ef4ef-91a3-4002-b69e-823b1e007090" x="1283.22" y="4918.9" width="87.66" height="11.89" transform="translate(-3597.79 6251.9) rotate(-90)"/><rect class="e84ef4ef-91a3-4002-b69e-823b1e007090" x="1006.28" y="4393.32" width="175.32" height="11.89" transform="translate(2187.88 8798.54) rotate(180)"/><rect class="e84ef4ef-91a3-4002-b69e-823b1e007090" x="0.25" y="3256.06" width="300.35" height="11.89" transform="translate(300.85 6524.02) rotate(180)"/><rect class="e84ef4ef-91a3-4002-b69e-823b1e007090" x="343.61" y="2653" width="146.1" height="11.89" transform="translate(833.32 5317.89) rotate(180)"/><rect class="e84ef4ef-91a3-4002-b69e-823b1e007090" x="504.28" y="2653" width="146.1" height="11.89" transform="translate(1154.65 5317.89) rotate(180)"/><rect class="e84ef4ef-91a3-4002-b69e-823b1e007090" x="343.61" y="2627.74" width="146.1" height="11.89" transform="translate(833.32 5267.38) rotate(180)"/><rect class="e84ef4ef-91a3-4002-b69e-823b1e007090" x="504.28" y="2627.74" width="146.1" height="11.89" transform="translate(1154.65 5267.38) rotate(180)"/></g></g></svg>