<svg xmlns="http://www.w3.org/2000/svg" width="100%" height="100%"><defs><style>.bd2527bf-7c65-4ba7-9311-35b7ee34eb6a{fill:none;stroke:#fff;stroke-miterlimit:10;stroke-width:0.5px;}</style></defs><g id="a1c860da-1b60-4697-8b62-70a1fa4c642d" data-name="Layer 2"><g id="a4b78493-ad7b-4034-9ff3-f76a9dab40a4" data-name="Rectangles"><rect class="bd2527bf-7c65-4ba7-9311-35b7ee34eb6a" x="94.58" y="120.79" width="129.06" height="5.11"/><rect class="bd2527bf-7c65-4ba7-9311-35b7ee34eb6a" x="39.75" y="458.68" width="129.06" height="5.11"/><rect class="bd2527bf-7c65-4ba7-9311-35b7ee34eb6a" x="244.31" y="749.9" width="75.33" height="5.11"/><rect class="bd2527bf-7c65-4ba7-9311-35b7ee34eb6a" x="576.25" y="1006.79" width="37.67" height="5.11"/><rect class="bd2527bf-7c65-4ba7-9311-35b7ee34eb6a" x="152.47" y="1026.34" width="37.67" height="5.11" transform="translate(-857.59 1200.2) rotate(-90)"/><rect class="bd2527bf-7c65-4ba7-9311-35b7ee34eb6a" x="162.97" y="1026.34" width="37.67" height="5.11" transform="translate(-847.09 1210.7) rotate(-90)"/><rect class="bd2527bf-7c65-4ba7-9311-35b7ee34eb6a" x="162.97" y="984.73" width="37.67" height="5.11" transform="translate(-805.48 1169.09) rotate(-90)"/><rect class="bd2527bf-7c65-4ba7-9311-35b7ee34eb6a" x="244.31" y="758.9" width="75.33" height="5.11"/><rect class="bd2527bf-7c65-4ba7-9311-35b7ee34eb6a" x="622.86" y="270.23" width="129.06" height="5.11"/><rect class="bd2527bf-7c65-4ba7-9311-35b7ee34eb6a" x="541.6" y="11.1" width="62.78" height="5.11"/><rect class="bd2527bf-7c65-4ba7-9311-35b7ee34eb6a" x="472.56" y="11.1" width="62.78" height="5.11"/><rect class="bd2527bf-7c65-4ba7-9311-35b7ee34eb6a" x="541.6" y="0.25" width="62.78" height="5.11"/><rect class="bd2527bf-7c65-4ba7-9311-35b7ee34eb6a" x="472.56" y="0.25" width="62.78" height="5.11"/><rect class="bd2527bf-7c65-4ba7-9311-35b7ee34eb6a" x="528.53" y="1249.79" width="129.06" height="5.11" transform="translate(1186.11 2504.69) rotate(180)"/><rect class="bd2527bf-7c65-4ba7-9311-35b7ee34eb6a" x="583.36" y="1587.68" width="129.06" height="5.11" transform="translate(1295.78 3180.46) rotate(180)"/><rect class="bd2527bf-7c65-4ba7-9311-35b7ee34eb6a" x="432.53" y="1878.9" width="75.33" height="5.11" transform="translate(940.39 3762.91) rotate(180)"/><rect class="bd2527bf-7c65-4ba7-9311-35b7ee34eb6a" x="138.25" y="2135.79" width="37.67" height="5.11" transform="translate(314.17 4276.69) rotate(180)"/><rect class="bd2527bf-7c65-4ba7-9311-35b7ee34eb6a" x="562.03" y="2155.34" width="37.67" height="5.11" transform="translate(-1577.04 2738.76) rotate(-90)"/><rect class="bd2527bf-7c65-4ba7-9311-35b7ee34eb6a" x="551.53" y="2155.34" width="37.67" height="5.11" transform="translate(-1587.54 2728.26) rotate(-90)"/><rect class="bd2527bf-7c65-4ba7-9311-35b7ee34eb6a" x="551.53" y="2113.73" width="37.67" height="5.11" transform="translate(-1545.93 2686.65) rotate(-90)"/><rect class="bd2527bf-7c65-4ba7-9311-35b7ee34eb6a" x="432.53" y="1887.9" width="75.33" height="5.11" transform="translate(940.39 3780.91) rotate(180)"/><rect class="bd2527bf-7c65-4ba7-9311-35b7ee34eb6a" x="0.25" y="1399.23" width="129.06" height="5.11" transform="translate(129.56 2803.57) rotate(180)"/><rect class="bd2527bf-7c65-4ba7-9311-35b7ee34eb6a" x="147.79" y="1140.1" width="62.78" height="5.11" transform="translate(358.35 2285.31) rotate(180)"/><rect class="bd2527bf-7c65-4ba7-9311-35b7ee34eb6a" x="216.82" y="1140.1" width="62.78" height="5.11" transform="translate(496.43 2285.31) rotate(180)"/><rect class="bd2527bf-7c65-4ba7-9311-35b7ee34eb6a" x="147.79" y="1129.25" width="62.78" height="5.11" transform="translate(358.35 2263.61) rotate(180)"/><rect class="bd2527bf-7c65-4ba7-9311-35b7ee34eb6a" x="216.82" y="1129.25" width="62.78" height="5.11" transform="translate(496.43 2263.61) rotate(180)"/></g></g></svg>