<svg xmlns="http://www.w3.org/2000/svg" viewBox="0 0 1665.53 4418.18"><defs><style>.a2a2955a-48f2-4638-8971-97e8360a08bd{fill:none;stroke:#fff;stroke-miterlimit:10;stroke-width:0.5px;}</style></defs><g id="af4d7201-5126-455f-a96c-dc6faa1dd5d7" data-name="Layer 2"><g id="bcc35a20-3e1a-4526-91d1-d7c8f287e2af" data-name="Tiny Squares"><rect class="a2a2955a-48f2-4638-8971-97e8360a08bd" x="528.54" y="0.25" width="18.62" height="18.62"/><rect class="a2a2955a-48f2-4638-8971-97e8360a08bd" x="1165.7" y="139.89" width="18.62" height="18.62"/><rect class="a2a2955a-48f2-4638-8971-97e8360a08bd" x="159.8" y="360.72" width="18.62" height="18.62"/><rect class="a2a2955a-48f2-4638-8971-97e8360a08bd" x="227.81" y="360.72" width="18.62" height="18.62"/><rect class="a2a2955a-48f2-4638-8971-97e8360a08bd" x="159.8" y="294.52" width="18.62" height="18.62"/><rect class="a2a2955a-48f2-4638-8971-97e8360a08bd" x="1047.26" y="439.33" width="18.62" height="18.62"/><rect class="a2a2955a-48f2-4638-8971-97e8360a08bd" x="1248.96" y="439.33" width="18.62" height="18.62"/><rect class="a2a2955a-48f2-4638-8971-97e8360a08bd" x="1248.96" y="615.17" width="18.62" height="18.62"/><rect class="a2a2955a-48f2-4638-8971-97e8360a08bd" x="478.89" y="1353.17" width="18.62" height="18.62"/><rect class="a2a2955a-48f2-4638-8971-97e8360a08bd" x="1108.81" y="1616.93" width="18.62" height="18.62"/><rect class="a2a2955a-48f2-4638-8971-97e8360a08bd" x="691.71" y="1157.68" width="18.62" height="18.62"/><rect class="a2a2955a-48f2-4638-8971-97e8360a08bd" x="159.8" y="695.33" width="18.62" height="18.62"/><rect class="a2a2955a-48f2-4638-8971-97e8360a08bd" x="159.8" y="633.79" width="18.62" height="18.62"/><rect class="a2a2955a-48f2-4638-8971-97e8360a08bd" x="887.85" y="879.05" width="18.62" height="18.62"/><rect class="a2a2955a-48f2-4638-8971-97e8360a08bd" x="887.85" y="695.33" width="18.62" height="18.62"/><rect class="a2a2955a-48f2-4638-8971-97e8360a08bd" x="1412.9" y="1770.4" width="18.62" height="18.62"/><rect class="a2a2955a-48f2-4638-8971-97e8360a08bd" x="1529.79" y="1770.4" width="18.62" height="18.62"/><rect class="a2a2955a-48f2-4638-8971-97e8360a08bd" x="1412.9" y="1664.9" width="18.62" height="18.62"/><rect class="a2a2955a-48f2-4638-8971-97e8360a08bd" x="1646.67" y="1770.4" width="18.62" height="18.62"/><rect class="a2a2955a-48f2-4638-8971-97e8360a08bd" x="965.55" y="1925.68" width="18.62" height="18.62"/><rect class="a2a2955a-48f2-4638-8971-97e8360a08bd" x="965.55" y="2205.99" width="18.62" height="18.62"/><rect class="a2a2955a-48f2-4638-8971-97e8360a08bd" x="1239.65" y="1944.3" width="18.62" height="18.62"/><rect class="a2a2955a-48f2-4638-8971-97e8360a08bd" x="382.05" y="2167.72" width="18.62" height="18.62"/><rect class="a2a2955a-48f2-4638-8971-97e8360a08bd" x="922.37" y="2455.26" width="18.62" height="18.62" transform="translate(1863.35 4929.15) rotate(180)"/><rect class="a2a2955a-48f2-4638-8971-97e8360a08bd" x="285.21" y="2594.9" width="18.62" height="18.62" transform="translate(589.04 5208.42) rotate(180)"/><rect class="a2a2955a-48f2-4638-8971-97e8360a08bd" x="1291.11" y="2815.73" width="18.62" height="18.62" transform="translate(2600.84 5650.08) rotate(180)"/><rect class="a2a2955a-48f2-4638-8971-97e8360a08bd" x="1223.1" y="2815.73" width="18.62" height="18.62" transform="translate(2464.82 5650.08) rotate(180)"/><rect class="a2a2955a-48f2-4638-8971-97e8360a08bd" x="1291.11" y="2749.53" width="18.62" height="18.62" transform="translate(2600.84 5517.69) rotate(180)"/><rect class="a2a2955a-48f2-4638-8971-97e8360a08bd" x="201.95" y="2444.71" width="18.62" height="18.62" transform="translate(422.51 4908.03) rotate(180)"/><rect class="a2a2955a-48f2-4638-8971-97e8360a08bd" x="0.25" y="2444.71" width="18.62" height="18.62" transform="translate(19.12 4908.03) rotate(180)"/><rect class="a2a2955a-48f2-4638-8971-97e8360a08bd" x="0.25" y="2620.54" width="18.62" height="18.62" transform="translate(19.12 5259.71) rotate(180)"/><rect class="a2a2955a-48f2-4638-8971-97e8360a08bd" x="972.02" y="3808.19" width="18.62" height="18.62" transform="translate(1962.65 7634.99) rotate(180)"/><rect class="a2a2955a-48f2-4638-8971-97e8360a08bd" x="342.1" y="4071.94" width="18.62" height="18.62" transform="translate(702.82 8162.5) rotate(180)"/><rect class="a2a2955a-48f2-4638-8971-97e8360a08bd" x="759.2" y="3612.69" width="18.62" height="18.62" transform="translate(1537.02 7244.01) rotate(180)"/><rect class="a2a2955a-48f2-4638-8971-97e8360a08bd" x="1291.11" y="3150.34" width="18.62" height="18.62" transform="translate(2600.84 6319.3) rotate(180)"/><rect class="a2a2955a-48f2-4638-8971-97e8360a08bd" x="1291.11" y="3088.8" width="18.62" height="18.62" transform="translate(2600.84 6196.22) rotate(180)"/><rect class="a2a2955a-48f2-4638-8971-97e8360a08bd" x="563.06" y="3334.07" width="18.62" height="18.62" transform="translate(1144.74 6686.75) rotate(180)"/><rect class="a2a2955a-48f2-4638-8971-97e8360a08bd" x="913.06" y="3107.42" width="18.62" height="18.62" transform="translate(1844.73 6233.45) rotate(180)"/><rect class="a2a2955a-48f2-4638-8971-97e8360a08bd" x="1059.55" y="4252.44" width="18.62" height="18.62" transform="translate(2137.71 8523.49) rotate(180)"/><rect class="a2a2955a-48f2-4638-8971-97e8360a08bd" x="942.67" y="4252.44" width="18.62" height="18.62" transform="translate(1903.95 8523.49) rotate(180)"/><rect class="a2a2955a-48f2-4638-8971-97e8360a08bd" x="1059.55" y="4146.93" width="18.62" height="18.62" transform="translate(2137.71 8312.48) rotate(180)"/><rect class="a2a2955a-48f2-4638-8971-97e8360a08bd" x="825.79" y="4252.44" width="18.62" height="18.62" transform="translate(1670.19 8523.49) rotate(180)"/><rect class="a2a2955a-48f2-4638-8971-97e8360a08bd" x="485.36" y="4380.69" width="18.62" height="18.62" transform="translate(989.33 8780.01) rotate(180)"/><rect class="a2a2955a-48f2-4638-8971-97e8360a08bd" x="201.95" y="3571.84" width="18.62" height="18.62" transform="translate(422.51 7162.29) rotate(180)"/><rect class="a2a2955a-48f2-4638-8971-97e8360a08bd" x="211.26" y="4399.31" width="18.62" height="18.62" transform="translate(441.13 8817.24) rotate(180)"/><rect class="a2a2955a-48f2-4638-8971-97e8360a08bd" x="1394.29" y="3842.32" width="18.62" height="18.62" transform="translate(2807.19 7703.26) rotate(180)"/></g></g></svg>