<svg xmlns="http://www.w3.org/2000/svg" width="100%" height="100%"><defs><style>.eb8cdb75-ce10-41df-b9a2-5de2a014fee2{fill:none;stroke:#fff;stroke-miterlimit:10;stroke-width:0.5px;}</style></defs><g id="ad68d93c-7b89-4aa1-a74c-aa8a0a879116" data-name="Layer 2"><g id="e2c35751-6794-4ddf-aae6-6c93e33bd78c" data-name="Tiny Squares"><rect class="eb8cdb75-ce10-41df-b9a2-5de2a014fee2" x="158.69" y="0.25" width="8" height="8"/><rect class="eb8cdb75-ce10-41df-b9a2-5de2a014fee2" x="432.47" y="60.25" width="8" height="8"/><rect class="eb8cdb75-ce10-41df-b9a2-5de2a014fee2" x="0.25" y="155.14" width="8" height="8"/><rect class="eb8cdb75-ce10-41df-b9a2-5de2a014fee2" x="29.47" y="155.14" width="8" height="8"/><rect class="eb8cdb75-ce10-41df-b9a2-5de2a014fee2" x="0.25" y="126.69" width="8" height="8"/><rect class="eb8cdb75-ce10-41df-b9a2-5de2a014fee2" x="381.58" y="188.92" width="8" height="8"/><rect class="eb8cdb75-ce10-41df-b9a2-5de2a014fee2" x="468.25" y="188.92" width="8" height="8"/><rect class="eb8cdb75-ce10-41df-b9a2-5de2a014fee2" x="468.25" y="264.47" width="8" height="8"/><rect class="eb8cdb75-ce10-41df-b9a2-5de2a014fee2" x="137.36" y="581.58" width="8" height="8"/><rect class="eb8cdb75-ce10-41df-b9a2-5de2a014fee2" x="408.03" y="694.92" width="8" height="8"/><rect class="eb8cdb75-ce10-41df-b9a2-5de2a014fee2" x="228.81" y="497.58" width="8" height="8"/><rect class="eb8cdb75-ce10-41df-b9a2-5de2a014fee2" x="0.25" y="298.92" width="8" height="8"/><rect class="eb8cdb75-ce10-41df-b9a2-5de2a014fee2" x="0.25" y="272.47" width="8" height="8"/><rect class="eb8cdb75-ce10-41df-b9a2-5de2a014fee2" x="313.08" y="377.86" width="8" height="8"/><rect class="eb8cdb75-ce10-41df-b9a2-5de2a014fee2" x="313.08" y="298.92" width="8" height="8"/><rect class="eb8cdb75-ce10-41df-b9a2-5de2a014fee2" x="99.75" y="772.47" width="8" height="8"/><rect class="eb8cdb75-ce10-41df-b9a2-5de2a014fee2" x="149.97" y="772.47" width="8" height="8"/><rect class="eb8cdb75-ce10-41df-b9a2-5de2a014fee2" x="99.75" y="727.14" width="8" height="8"/><rect class="eb8cdb75-ce10-41df-b9a2-5de2a014fee2" x="200.19" y="772.47" width="8" height="8"/><rect class="eb8cdb75-ce10-41df-b9a2-5de2a014fee2" x="346.47" y="827.58" width="8" height="8"/><rect class="eb8cdb75-ce10-41df-b9a2-5de2a014fee2" x="346.47" y="948.03" width="8" height="8"/><rect class="eb8cdb75-ce10-41df-b9a2-5de2a014fee2" x="464.25" y="835.58" width="8" height="8"/><rect class="eb8cdb75-ce10-41df-b9a2-5de2a014fee2" x="95.75" y="931.58" width="8" height="8"/><rect class="eb8cdb75-ce10-41df-b9a2-5de2a014fee2" x="327.92" y="1055.14" width="8" height="8" transform="translate(663.83 2118.28) rotate(180)"/><rect class="eb8cdb75-ce10-41df-b9a2-5de2a014fee2" x="54.14" y="1115.14" width="8" height="8" transform="translate(116.28 2238.28) rotate(180)"/><rect class="eb8cdb75-ce10-41df-b9a2-5de2a014fee2" x="486.36" y="1210.03" width="8" height="8" transform="translate(980.72 2428.06) rotate(180)"/><rect class="eb8cdb75-ce10-41df-b9a2-5de2a014fee2" x="457.14" y="1210.03" width="8" height="8" transform="translate(922.28 2428.06) rotate(180)"/><rect class="eb8cdb75-ce10-41df-b9a2-5de2a014fee2" x="486.36" y="1181.58" width="8" height="8" transform="translate(980.72 2371.17) rotate(180)"/><rect class="eb8cdb75-ce10-41df-b9a2-5de2a014fee2" x="105.03" y="1243.81" width="8" height="8" transform="translate(218.06 2495.61) rotate(180)"/><rect class="eb8cdb75-ce10-41df-b9a2-5de2a014fee2" x="18.36" y="1243.81" width="8" height="8" transform="translate(44.72 2495.61) rotate(180)"/><rect class="eb8cdb75-ce10-41df-b9a2-5de2a014fee2" x="18.36" y="1319.36" width="8" height="8" transform="translate(44.72 2646.72) rotate(180)"/><rect class="eb8cdb75-ce10-41df-b9a2-5de2a014fee2" x="349.25" y="1636.47" width="8" height="8" transform="translate(706.5 3280.94) rotate(180)"/><rect class="eb8cdb75-ce10-41df-b9a2-5de2a014fee2" x="78.58" y="1749.81" width="8" height="8" transform="translate(165.17 3507.61) rotate(180)"/><rect class="eb8cdb75-ce10-41df-b9a2-5de2a014fee2" x="257.81" y="1552.47" width="8" height="8" transform="translate(523.61 3112.94) rotate(180)"/><rect class="eb8cdb75-ce10-41df-b9a2-5de2a014fee2" x="486.36" y="1353.81" width="8" height="8" transform="translate(980.72 2715.61) rotate(180)"/><rect class="eb8cdb75-ce10-41df-b9a2-5de2a014fee2" x="486.36" y="1327.36" width="8" height="8" transform="translate(980.72 2662.72) rotate(180)"/><rect class="eb8cdb75-ce10-41df-b9a2-5de2a014fee2" x="173.53" y="1432.75" width="8" height="8" transform="translate(355.06 2873.5) rotate(180)"/><rect class="eb8cdb75-ce10-41df-b9a2-5de2a014fee2" x="323.92" y="1335.36" width="8" height="8" transform="translate(655.83 2678.72) rotate(180)"/><rect class="eb8cdb75-ce10-41df-b9a2-5de2a014fee2" x="386.86" y="1827.36" width="8" height="8" transform="translate(781.72 3662.72) rotate(180)"/><rect class="eb8cdb75-ce10-41df-b9a2-5de2a014fee2" x="336.64" y="1827.36" width="8" height="8" transform="translate(681.28 3662.72) rotate(180)"/><rect class="eb8cdb75-ce10-41df-b9a2-5de2a014fee2" x="386.86" y="1782.03" width="8" height="8" transform="translate(781.72 3572.06) rotate(180)"/><rect class="eb8cdb75-ce10-41df-b9a2-5de2a014fee2" x="286.42" y="1827.36" width="8" height="8" transform="translate(580.83 3662.72) rotate(180)"/><rect class="eb8cdb75-ce10-41df-b9a2-5de2a014fee2" x="140.14" y="1882.47" width="8" height="8" transform="translate(288.28 3772.94) rotate(180)"/><rect class="eb8cdb75-ce10-41df-b9a2-5de2a014fee2" x="18.36" y="1534.92" width="8" height="8" transform="translate(44.72 3077.83) rotate(180)"/><rect class="eb8cdb75-ce10-41df-b9a2-5de2a014fee2" x="22.36" y="1890.47" width="8" height="8" transform="translate(52.72 3788.94) rotate(180)"/><rect class="eb8cdb75-ce10-41df-b9a2-5de2a014fee2" x="530.69" y="1651.14" width="8" height="8" transform="translate(1069.39 3310.28) rotate(180)"/></g></g></svg>