<?xml version="1.0" encoding="utf-8"?>
<!-- Generator: Adobe Illustrator 26.0.2, SVG Export Plug-In . SVG Version: 6.00 Build 0)  -->
<svg version="1.1" id="Layer_1" xmlns="http://www.w3.org/2000/svg" xmlns:xlink="http://www.w3.org/1999/xlink" x="0px" y="0px"
	 viewBox="0 0 720 455.3" style="enable-background:new 0 0 720 455.3;" xml:space="preserve">
<style type="text/css">
	.st0{fill:#FFFFFF;}
	.st1{display:none;}
	.st2{display:inline;fill:#FFFFFF;}
</style>
<g id="Logo_white">
	<path class="st0" d="M662,180c-2.9-2.3-12-2.4-14.8,0c-49.2,41.6-105.7,71.4-105.7,71.4s52.2-3.6,92.2-13.8
		C688.8,223.6,676.4,191.5,662,180z"/>
	<g>
		<path class="st0" d="M58,180c-14.5,11.5-26.8,43.7,28.3,57.7c40,10.2,92.2,13.8,92.2,13.8S122,221.6,72.8,180
			C70,177.6,60.9,177.6,58,180z"/>
		<path class="st0" d="M680.9,112.1c-26.3-6.1-43.3-8.3-45.7,5.9c-1.9,11.4-13.5,15.5-23.9,16.8c-15.6-20.1-48-52-67.5-64.2
			C499.8,42.8,436,38.9,360,38.9c-40.3,0-77.6,2-110.1,7.5l-0.8,0.9l17.7,21.2l-21.2-17.7l-21.2,17.7l17.2-20.6
			c-25.3,4.9-47.4,12.2-65.4,22.6c-19.9,11.5-51.9,44.1-67.5,64.2c-10.4-1.3-22-5.3-23.9-16.8c-2.3-14.2-19.4-11.9-45.7-5.9
			c-15.6,3.6-36.6,24-5.1,29.3c18.1,3,63.8,6.3,64.8,6.4c12.2,1.3,34.2,4.6,50.6,9.7c30,9.2,71.1,22.4,122.2,47.8
			c0,0-26.7-23.3-62.3-41.1c2.3,0.1,86.1-4.8,150.7-4.8c64.6,0,148.3,4.9,150.6,4.8c-33.4,16.3-61.4,40.3-62.3,41
			c51-25.4,92.1-38.5,122.1-47.8c19.4-6,38.4-8.5,50.7-9.7c16.2-1.6,46.6-3.4,64.8-6.4C717.5,136.1,696.5,115.7,680.9,112.1z
			 M399.7,146.4c0,0-15.2-0.6-34.4-0.3c5.7-11.7,20.4-35.3,50.6-45.3c36.3-12,45.5-24.4,41.7-34.1c10.2,6.1,10.2,14.6-7.3,25.5
			C420.9,110.7,404.1,123,399.7,146.4z M528.3,147.1c-29.2,3.4-64.9,1-64.9,1c-44.8-1.8-20.1-32.9,3.9-53.9c26-22.7-1.3-34-1.3-34
			c15.8,0,43,4.9,57.1,10.4c40.1,15.6,66.8,66.4,66.8,66.4C562.4,142.6,543.3,145.4,528.3,147.1z"/>
		<path class="st0" d="M266.9,26.1l-17,20.3c-2.8,0.5-5.6,1-8.3,1.5l0.5-0.6l-17.7-21.2l21.2,17.7L266.9,26.1z"/>
		<g class="st1">
			<circle class="st2" cx="235.2" cy="48.5" r="53.7"/>
		</g>
	</g>
	<g id="KONCEPT_00000010273946679541121050000010869634131892198032_">
		<path class="st0" d="M77.4,325.7L27,324.8l-9.3,46.6h21.4l4.7-23.2l15-13.3l23.9,36.5h24.2L77.4,325.7z M123.6,278.2H97.5
			l-48.3,42.7l8.5-42.7H36.3L27,324.7l49.2-1l-1.5-2.4L123.6,278.2z"/>
		<path class="st0" d="M195.8,327.8c-3.5,15.2-15.4,26.8-32.9,26.8c-16.4,0-25.4-9.5-25.4-23.3c0-1.5,0.1-3,0.2-4.5l-21.8-0.4
			c-0.2,2-0.3,4-0.3,6.1c0,24,17,40.5,45.4,40.5c30.2,0,51.8-18.6,56.6-44.8L195.8,327.8z M173.4,276.6c-30.8,0-52.7,19.3-56.9,46.3
			l22-0.5c3.3-15.6,15.2-27.4,33-27.4c16.4,0,25.4,9.5,25.4,23.3c0,1,0,2-0.1,2.9l21.8-0.5c0.1-1.2,0.1-2.4,0.1-3.6
			C218.7,293.1,201.7,276.6,173.4,276.6z"/>
		<path class="st0" d="M233.7,328.4l-8.6,42.9h21.3l8.5-42.5L233.7,328.4z M307.9,278.2l-8.1,40.8l21.3-0.5l8.1-40.3H307.9z
			 M261.6,278.2h-17.8l-8.4,42.1l21.4-0.4l1.4-6.8l4,6.7l23.9-0.5L261.6,278.2z M297.7,329.6l-1.4,7l-4.2-7.1l-24.4-0.4l25.2,42.3
			h17.7l8.3-41.4L297.7,329.6z"/>
		<path class="st0" d="M393.5,276.6c-29.2,0-50.3,17.1-56.2,41.6l22.4-0.5c4.7-13.3,16.4-22.7,32.4-22.7c10.3,0,17.7,3.9,22.5,10.9
			l15.6-12.8C423.4,282.4,410,276.6,393.5,276.6z M408.2,343.8c-6.9,7.5-15.3,10.8-24.7,10.8c-16.8,0-26.1-9.3-26.1-23.4
			c0-0.2,0-0.3,0-0.5l-21.8-0.4c0,0.7,0,1.5,0,2.2c0,24,17.6,40.5,46.1,40.5c16,0,29.5-4.7,39.4-16.1L408.2,343.8z"/>
		<path class="st0" d="M448.8,278.2l-7.6,37.7l21.5-0.5l4-20h48.8l2.9-13.8l0.7-3.5H448.8z M455.1,354l4.3-21.6l-21.3-0.4l-7.9,39.2
			h72.1l3.5-17l0.1-0.3H455.1z"/>
		<path class="st0" d="M575.8,278.2h-37.6L531,314l21.7-0.5l3.6-17.8h16.9c10.9,0,17.3,4.3,17.3,13.3c0,1.3-0.1,2.5-0.3,3.7
			l21.8-0.5c0.2-1.7,0.3-3.4,0.3-5.1C612.2,288.9,599.1,278.2,575.8,278.2z M527,333.7l-7.5,37.7h21.7l5.1-25.7H567
			c14.1,0,25.6-3.8,33.4-10.7L527,333.7z"/>
		<path class="st0" d="M621.1,278.2l-3.6,17.6h29.8l-3.2,15.9l21.8-0.5l3.1-15.4h29.7l3.6-17.6H621.1z M632.3,371.3h21.6l7.1-35.3
			l-21.5-0.4L632.3,371.3z"/>
	</g>
	<polygon class="st0" points="26.3,324.8 27,324.7 27,324.8 	"/>
	<polygon class="st0" points="506,315.7 502.7,332.5 459.3,332.5 462.8,315.5 	"/>
	<g id="DETAILING_00000118371791226824545680000000424911397440497028_">
		<path class="st0" d="M124.9,398.4h14.8c11.3,0,18.9,7.1,18.9,17.5c0,10.4-7.7,17.5-18.9,17.5h-14.8V398.4z M139.3,429
			c8.7,0,14.2-5.3,14.2-13.1c0-7.8-5.5-13.2-14.2-13.2h-9.4V429H139.3z"/>
		<path class="st0" d="M216.6,429v4.4h-25.4v-35h24.7v4.3h-19.7v10.8h17.6v4.3h-17.6V429H216.6z"/>
		<path class="st0" d="M256.6,402.7h-12v-4.3h28.9v4.3h-12v30.7h-5V402.7z"/>
		<path class="st0" d="M324.6,424.6H306l-3.9,8.8H297l15.9-35h5l15.9,35h-5.2L324.6,424.6z M322.9,420.6l-7.6-17.2l-7.6,17.2H322.9z
			"/>
		<path class="st0" d="M363.9,398.4h5v35h-5V398.4z"/>
		<path class="st0" d="M404.4,398.4h5V429h18.9v4.4h-24V398.4z"/>
		<path class="st0" d="M459.2,398.4h5v35h-5V398.4z"/>
		<path class="st0" d="M529.8,398.4v35h-4.1l-21-26.1v26.1h-5v-35h4.1l21,26.1v-26.1H529.8z"/>
		<path class="st0" d="M589.6,415.7h4.8v13.7c-3.5,2.9-8.4,4.4-13.3,4.4c-10.8,0-18.7-7.6-18.7-17.9c0-10.4,7.9-17.9,18.8-17.9
			c5.6,0,10.3,1.9,13.5,5.4l-3.1,3.1c-2.9-2.8-6.2-4-10.2-4c-8.1,0-14,5.6-14,13.5c0,7.7,5.9,13.5,13.9,13.5c3,0,5.7-0.7,8.2-2.3
			V415.7z"/>
	</g>
</g>
</svg>
